<svg xmlns="http://www.w3.org/2000/svg" xmlns:xlink="http://www.w3.org/1999/xlink" width="500" zoomAndPan="magnify" viewBox="0 0 375 374.999991" height="500" preserveAspectRatio="xMidYMid meet" version="1.0"><defs><g/><clipPath id="fba1574073"><path d="M 121.496094 172 L 213 172 L 213 232 L 121.496094 232 Z M 121.496094 172 " clip-rule="nonzero"/></clipPath><clipPath id="e6202d8864"><path d="M 173 171 L 180 171 L 180 233.871094 L 173 233.871094 Z M 173 171 " clip-rule="nonzero"/></clipPath><clipPath id="8ff572e155"><path d="M 197.152344 212.023438 L 206.359375 212.023438 L 206.359375 221.226562 L 197.152344 221.226562 Z M 197.152344 212.023438 " clip-rule="nonzero"/></clipPath><clipPath id="1e757cc840"><path d="M 201.757812 212.023438 C 199.214844 212.023438 197.152344 214.082031 197.152344 216.625 C 197.152344 219.167969 199.214844 221.226562 201.757812 221.226562 C 204.296875 221.226562 206.359375 219.167969 206.359375 216.625 C 206.359375 214.082031 204.296875 212.023438 201.757812 212.023438 Z M 201.757812 212.023438 " clip-rule="nonzero"/></clipPath><clipPath id="b372e8c3c8"><path d="M 296.859375 212.023438 L 306.066406 212.023438 L 306.066406 221.226562 L 296.859375 221.226562 Z M 296.859375 212.023438 " clip-rule="nonzero"/></clipPath><clipPath id="a06d53c072"><path d="M 301.460938 212.023438 C 298.921875 212.023438 296.859375 214.082031 296.859375 216.625 C 296.859375 219.167969 298.921875 221.226562 301.460938 221.226562 C 304.003906 221.226562 306.066406 219.167969 306.066406 216.625 C 306.066406 214.082031 304.003906 212.023438 301.460938 212.023438 Z M 301.460938 212.023438 " clip-rule="nonzero"/></clipPath><clipPath id="bb6d497e53"><path d="M 66.519531 207.417969 L 75.726562 207.417969 L 75.726562 216.625 L 66.519531 216.625 Z M 66.519531 207.417969 " clip-rule="nonzero"/></clipPath><clipPath id="116a10da18"><path d="M 71.121094 207.417969 C 68.578125 207.417969 66.519531 209.480469 66.519531 212.023438 C 66.519531 214.5625 68.578125 216.625 71.121094 216.625 C 73.664062 216.625 75.726562 214.5625 75.726562 212.023438 C 75.726562 209.480469 73.664062 207.417969 71.121094 207.417969 Z M 71.121094 207.417969 " clip-rule="nonzero"/></clipPath></defs><g fill="#231f20" fill-opacity="1"><g transform="translate(32.40127, 239.106299)"><g><path d="M 23.597656 -1.90625 C 23.050781 -5.265625 22.597656 -7.441406 22.054688 -10.617188 C 21.238281 -15.429688 20.328125 -19.875 19.605469 -24.6875 C 18.605469 -32.402344 18.695312 -39.84375 16.972656 -46.832031 C 16.699219 -48.738281 15.972656 -50.550781 14.976562 -52.277344 C 14.15625 -53.726562 12.070312 -53.273438 11.707031 -51.914062 C 11.074219 -51.097656 10.980469 -50.734375 10.980469 -50.460938 C 10.800781 -49.28125 10.617188 -48.191406 10.527344 -47.011719 C 10.347656 -45.558594 9.984375 -44.199219 9.800781 -42.746094 C 8.984375 -38.390625 8.167969 -33.488281 7.167969 -29.40625 C 6.171875 -22.960938 4.902344 -17.335938 3.8125 -11.617188 C 3.265625 -8.710938 2.722656 -5.808594 2.269531 -2.902344 C 2.269531 -1 3.722656 -0.179688 4.902344 -0.816406 C 5.355469 -1 5.71875 -1.453125 5.808594 -1.90625 C 6.535156 -6.625 7.167969 -10.800781 8.078125 -14.882812 C 8.894531 -19.421875 9.800781 -23.871094 10.710938 -28.316406 C 10.980469 -29.675781 11.253906 -30.949219 11.527344 -32.308594 C 12.886719 -32.128906 14.066406 -32.128906 15.246094 -32.039062 C 16.0625 -24.777344 16.609375 -18.0625 18.332031 -11.164062 C 18.605469 -9.53125 19.511719 -1.453125 20.421875 -0.273438 C 20.964844 0.453125 22.054688 1 22.871094 0.363281 C 23.6875 -0.0898438 24.050781 -1.179688 23.597656 -1.90625 Z M 14.882812 -35.667969 C 13.976562 -35.757812 13.070312 -35.757812 12.160156 -35.847656 C 12.617188 -38.84375 13.339844 -41.75 13.796875 -44.652344 C 14.339844 -41.386719 14.703125 -38.480469 14.882812 -35.667969 Z M 14.882812 -35.667969 "/></g></g></g><g fill="#231f20" fill-opacity="1"><g transform="translate(58.628025, 239.106299)"><g/></g></g><g fill="#231f20" fill-opacity="1"><g transform="translate(77.322531, 239.106299)"><g><path d="M 18.242188 -20.511719 C 18.0625 -23.507812 17.878906 -26.5 17.699219 -29.40625 C 17.605469 -30.949219 17.515625 -32.402344 17.152344 -33.851562 C 16.882812 -34.578125 16.609375 -35.304688 16.246094 -36.03125 C 16.0625 -36.574219 15.699219 -37.210938 15.339844 -37.664062 C 14.976562 -38.300781 14.519531 -38.84375 13.886719 -39.390625 C 13.703125 -39.570312 13.523438 -39.75 13.25 -39.933594 C 13.433594 -40.113281 13.703125 -40.296875 13.886719 -40.476562 C 14.25 -40.839844 14.519531 -41.203125 14.792969 -41.566406 C 15.882812 -42.929688 16.425781 -44.652344 16.425781 -46.285156 C 16.425781 -46.832031 16.335938 -47.375 16.246094 -47.828125 C 16.0625 -48.375 15.882812 -48.738281 15.699219 -49.191406 C 15.429688 -49.824219 14.976562 -50.460938 14.429688 -51.003906 C 13.523438 -51.914062 12.253906 -52.367188 10.980469 -52.640625 C 10.253906 -52.730469 9.53125 -52.730469 8.894531 -52.730469 C 8.710938 -52.730469 8.53125 -52.730469 8.351562 -52.730469 C 7.894531 -52.730469 7.441406 -52.730469 6.988281 -52.640625 C 6.898438 -52.640625 6.714844 -52.640625 6.535156 -52.546875 C 6.351562 -52.546875 6.171875 -52.457031 6.082031 -52.367188 C 5.898438 -52.367188 5.808594 -52.367188 5.628906 -52.367188 C 5.171875 -52.367188 4.71875 -52.1875 4.355469 -51.914062 C 3.992188 -51.550781 3.902344 -51.097656 3.8125 -50.550781 C 3.539062 -47.558594 3.265625 -44.472656 2.902344 -41.476562 C 2.632812 -38.300781 2.269531 -35.214844 2.269531 -32.128906 C 2.179688 -29.132812 2.179688 -26.136719 2.179688 -23.050781 C 2.179688 -20.058594 2.359375 -16.972656 2.359375 -13.976562 C 2.449219 -12.976562 2.449219 -11.980469 2.449219 -10.980469 C 2.449219 -7.625 2.632812 -4.445312 3.085938 -1.542969 C 3.085938 -1.089844 3.265625 -0.542969 3.628906 -0.273438 C 3.902344 0.0898438 4.445312 0.273438 4.902344 0.273438 C 5.265625 0.273438 5.535156 0.179688 5.808594 0 C 6.261719 0.363281 6.898438 0.636719 7.441406 0.542969 C 8.804688 0.542969 9.890625 0.363281 10.890625 0.179688 C 11.707031 0 12.523438 -0.363281 13.160156 -0.726562 C 13.886719 -1.089844 14.519531 -1.632812 15.246094 -2.179688 C 16.0625 -2.8125 16.699219 -3.722656 17.152344 -4.71875 C 18.332031 -6.808594 18.421875 -9.347656 18.515625 -11.617188 C 18.515625 -14.613281 18.421875 -17.605469 18.242188 -20.511719 Z M 10.074219 -49.101562 C 10.527344 -49.007812 10.980469 -48.917969 11.433594 -48.738281 C 11.527344 -48.644531 11.617188 -48.644531 11.796875 -48.554688 C 11.890625 -48.375 12.070312 -48.191406 12.253906 -48.011719 C 12.34375 -47.828125 12.433594 -47.648438 12.617188 -47.464844 C 12.707031 -47.195312 12.707031 -46.921875 12.796875 -46.648438 C 12.796875 -46.285156 12.796875 -46.015625 12.796875 -45.742188 C 12.707031 -45.378906 12.617188 -45.015625 12.433594 -44.652344 C 12.253906 -44.289062 12.070312 -43.925781 11.796875 -43.5625 C 11.527344 -43.199219 11.164062 -42.835938 10.800781 -42.566406 C 10.527344 -42.382812 10.253906 -42.292969 9.984375 -42.113281 C 9.347656 -41.839844 8.621094 -41.65625 7.894531 -41.386719 C 7.53125 -41.292969 7.167969 -41.203125 6.808594 -41.113281 C 6.714844 -41.113281 6.625 -41.113281 6.535156 -41.023438 C 6.625 -42.113281 6.714844 -43.109375 6.808594 -44.109375 C 6.988281 -45.742188 7.167969 -47.375 7.351562 -49.007812 C 8.257812 -49.101562 9.167969 -49.191406 10.074219 -49.101562 Z M 14.25 -6.808594 C 13.976562 -5.898438 12.976562 -5.265625 12.433594 -4.539062 C 11.34375 -3.265625 9.074219 -3.085938 8.257812 -3.085938 C 7.625 -3.085938 7.167969 -3.449219 6.535156 -3.449219 C 6.535156 -3.539062 6.535156 -3.539062 6.535156 -3.628906 C 6.445312 -4.355469 6.445312 -5.171875 6.351562 -5.898438 C 6.261719 -7.351562 6.082031 -8.894531 6.082031 -10.4375 C 5.988281 -11.890625 5.988281 -13.433594 5.988281 -14.976562 C 5.988281 -16.519531 5.898438 -17.96875 5.898438 -19.511719 C 5.808594 -22.507812 5.808594 -25.59375 5.808594 -28.589844 C 5.808594 -30.132812 5.808594 -31.675781 5.898438 -33.125 C 5.898438 -34.578125 5.988281 -35.941406 6.171875 -37.300781 C 7.167969 -37.210938 6.988281 -37.210938 8.351562 -37.210938 C 8.984375 -37.300781 9.710938 -37.300781 10.347656 -37.210938 C 11.074219 -37.121094 11.890625 -36.304688 12.160156 -35.941406 C 12.617188 -35.214844 13.523438 -33.398438 13.613281 -32.945312 C 13.796875 -32.492188 13.886719 -32.128906 13.886719 -31.675781 C 14.066406 -30.3125 14.066406 -29.042969 14.15625 -27.679688 C 14.25 -26.136719 14.339844 -24.6875 14.429688 -23.144531 C 14.613281 -20.148438 14.882812 -17.0625 14.882812 -14.066406 C 14.882812 -9.710938 14.792969 -8.078125 14.25 -6.808594 Z M 14.25 -6.808594 "/></g></g></g><g fill="#231f20" fill-opacity="1"><g transform="translate(97.475484, 239.106299)"><g/></g></g><g fill="#231f20" fill-opacity="1"><g transform="translate(116.16999, 239.106299)"><g/></g></g><g fill="#231f20" fill-opacity="1"><g transform="translate(134.864497, 239.106299)"><g/></g></g><g fill="#231f20" fill-opacity="1"><g transform="translate(153.559003, 239.106299)"><g/></g></g><g fill="#231f20" fill-opacity="1"><g transform="translate(172.253509, 239.106299)"><g/></g></g><g fill="#231f20" fill-opacity="1"><g transform="translate(190.948016, 239.106299)"><g/></g></g><g fill="#231f20" fill-opacity="1"><g transform="translate(209.642522, 239.106299)"><g/></g></g><g fill="#231f20" fill-opacity="1"><g transform="translate(228.338761, 239.106299)"><g><path d="M 8.441406 -52.910156 C 7.441406 -52.457031 6.535156 -51.730469 5.808594 -50.914062 C 5.445312 -50.644531 5.171875 -50.1875 4.902344 -49.824219 C 4.71875 -49.554688 4.539062 -49.191406 4.355469 -48.828125 C 3.902344 -48.101562 3.628906 -47.285156 3.359375 -46.46875 C 2.902344 -45.015625 2.542969 -43.5625 2.359375 -42.019531 C 2.179688 -40.476562 1.996094 -38.933594 1.90625 -37.390625 C 1.816406 -35.941406 1.816406 -34.398438 1.722656 -32.945312 C 1.722656 -31.492188 1.722656 -29.949219 1.722656 -28.496094 C 1.722656 -26.953125 1.722656 -25.503906 1.816406 -23.960938 C 1.90625 -22.507812 1.90625 -21.054688 1.996094 -19.605469 C 2.085938 -18.152344 2.269531 -16.789062 2.359375 -15.339844 C 2.542969 -13.886719 2.542969 -12.433594 2.722656 -11.074219 C 2.902344 -10.253906 2.996094 -9.4375 3.175781 -8.621094 C 3.265625 -7.988281 3.539062 -7.351562 3.8125 -6.714844 C 4.085938 -5.988281 4.445312 -5.265625 4.992188 -4.628906 C 5.445312 -3.992188 5.898438 -3.359375 6.535156 -2.902344 C 7.167969 -2.359375 7.804688 -1.816406 8.53125 -1.453125 C 9.257812 -1.089844 10.074219 -0.726562 10.800781 -0.542969 C 11.707031 -0.453125 12.617188 -0.363281 13.433594 -0.363281 C 13.976562 -0.363281 14.613281 -0.453125 15.15625 -0.636719 C 15.792969 -0.90625 16.246094 -1.269531 16.789062 -1.632812 C 17.152344 -1.90625 17.515625 -2.179688 17.878906 -2.542969 C 18.332031 -2.902344 18.785156 -3.359375 19.058594 -3.902344 C 19.695312 -4.71875 19.964844 -5.71875 20.058594 -6.714844 C 20.148438 -7.167969 20.238281 -7.625 20.238281 -8.078125 C 20.238281 -9.074219 19.421875 -9.890625 18.421875 -9.890625 C 17.425781 -9.890625 16.609375 -9.074219 16.609375 -8.078125 C 16.609375 -7.804688 16.609375 -7.625 16.609375 -7.351562 C 16.519531 -6.988281 16.425781 -6.625 16.246094 -6.171875 C 16.15625 -5.988281 16.0625 -5.808594 15.882812 -5.535156 C 15.609375 -5.265625 15.246094 -4.992188 14.882812 -4.71875 C 14.613281 -4.445312 14.339844 -4.265625 13.976562 -4.085938 C 13.886719 -4.085938 13.703125 -3.992188 13.523438 -3.992188 C 12.976562 -3.992188 12.523438 -3.992188 11.980469 -3.992188 C 11.527344 -4.085938 11.164062 -4.175781 10.800781 -4.355469 C 10.164062 -4.628906 9.710938 -4.992188 9.167969 -5.355469 C 8.804688 -5.71875 8.351562 -6.082031 7.988281 -6.445312 C 7.714844 -6.898438 7.441406 -7.351562 7.167969 -7.894531 C 6.808594 -8.894531 6.535156 -9.890625 6.351562 -10.980469 C 6.261719 -12.253906 6.171875 -13.523438 5.988281 -14.882812 C 5.898438 -16.335938 5.71875 -17.789062 5.628906 -19.242188 C 5.535156 -20.691406 5.535156 -22.144531 5.445312 -23.597656 C 5.355469 -25.050781 5.265625 -26.5 5.265625 -27.953125 C 5.265625 -30.3125 5.355469 -32.582031 5.445312 -34.851562 C 5.445312 -35.941406 5.445312 -37.027344 5.535156 -38.117188 C 5.628906 -39.027344 5.71875 -40.023438 5.808594 -41.023438 C 5.988281 -41.929688 6.082031 -42.835938 6.351562 -43.746094 C 6.535156 -44.652344 6.808594 -45.558594 7.167969 -46.46875 C 7.441406 -47.101562 7.804688 -47.648438 8.167969 -48.191406 C 8.441406 -48.554688 8.804688 -48.828125 9.167969 -49.191406 C 9.53125 -49.371094 9.890625 -49.644531 10.253906 -49.824219 C 10.617188 -49.917969 10.980469 -50.007812 11.253906 -50.097656 C 11.527344 -50.097656 11.796875 -50.097656 11.980469 -50.097656 C 12.523438 -50.007812 12.976562 -49.824219 13.433594 -49.734375 C 13.613281 -49.644531 13.796875 -49.460938 13.886719 -49.371094 C 14.066406 -49.28125 14.15625 -49.101562 14.339844 -49.007812 C 14.429688 -48.738281 14.613281 -48.554688 14.792969 -48.28125 C 14.882812 -48.011719 14.882812 -47.738281 14.976562 -47.558594 C 15.246094 -46.558594 16.246094 -46.015625 17.242188 -46.285156 C 18.152344 -46.46875 18.785156 -47.558594 18.515625 -48.464844 C 18.242188 -49.28125 17.96875 -50.097656 17.425781 -50.824219 C 17.242188 -51.097656 16.972656 -51.367188 16.789062 -51.640625 C 16.425781 -52.09375 15.972656 -52.367188 15.519531 -52.640625 C 15.066406 -52.910156 14.613281 -53.09375 14.15625 -53.273438 C 13.976562 -53.273438 13.796875 -53.367188 13.613281 -53.457031 C 13.160156 -53.546875 12.617188 -53.636719 12.070312 -53.726562 C 11.890625 -53.726562 11.707031 -53.726562 11.527344 -53.726562 C 10.4375 -53.726562 9.4375 -53.367188 8.441406 -52.910156 Z M 8.441406 -52.910156 "/></g></g></g><g fill="#231f20" fill-opacity="1"><g transform="translate(249.483515, 239.106299)"><g><path d="M 20.058594 -34.035156 C 19.964844 -35.484375 19.875 -37.121094 19.785156 -38.570312 C 19.605469 -39.480469 19.511719 -40.296875 19.242188 -41.113281 C 19.058594 -41.929688 18.785156 -42.65625 18.515625 -43.382812 C 18.152344 -44.109375 17.789062 -44.925781 17.425781 -45.652344 C 16.972656 -46.46875 16.425781 -47.195312 15.882812 -47.921875 C 15.699219 -48.191406 15.429688 -48.464844 15.246094 -48.738281 C 14.882812 -49.007812 14.613281 -49.28125 14.25 -49.554688 C 13.796875 -49.917969 13.25 -50.28125 12.707031 -50.644531 C 12.253906 -50.914062 11.796875 -51.097656 11.34375 -51.277344 C 10.253906 -51.730469 9.074219 -51.914062 7.988281 -52.1875 C 7.351562 -52.277344 6.808594 -52.457031 6.261719 -52.546875 C 5.535156 -52.730469 4.71875 -52.820312 3.992188 -52.820312 C 3.992188 -52.820312 3.992188 -52.820312 3.902344 -52.820312 C 3.265625 -52.820312 2.722656 -52.457031 2.449219 -51.914062 C 1.816406 -51.550781 1.363281 -50.914062 1.363281 -50.28125 C 1.542969 -47.011719 1.542969 -43.835938 1.542969 -40.660156 C 1.542969 -37.574219 1.632812 -34.304688 1.816406 -31.21875 C 1.90625 -29.769531 2.085938 -26.773438 2.179688 -25.320312 C 2.359375 -23.777344 2.449219 -22.144531 2.449219 -20.601562 C 2.542969 -17.515625 2.542969 -14.519531 2.722656 -11.527344 C 2.722656 -9.984375 2.8125 -8.441406 2.8125 -6.898438 C 2.902344 -5.355469 2.996094 -3.8125 2.996094 -2.269531 C 2.996094 -1.269531 3.8125 -0.453125 4.808594 -0.453125 C 4.902344 -0.453125 4.992188 -0.453125 4.992188 -0.453125 C 5.082031 -0.453125 5.171875 -0.363281 5.265625 -0.363281 C 5.71875 -0.0898438 6.171875 0 6.625 -0.179688 C 7.441406 -0.273438 8.257812 -0.542969 8.984375 -0.90625 C 9.710938 -1.363281 10.347656 -1.816406 10.980469 -2.359375 C 12.160156 -3.175781 13.160156 -4.265625 14.066406 -5.355469 C 15.15625 -6.625 15.972656 -7.988281 16.699219 -9.4375 C 17.425781 -10.890625 17.96875 -12.433594 18.421875 -13.976562 C 18.878906 -15.519531 19.148438 -17.152344 19.332031 -18.695312 C 19.511719 -20.238281 19.695312 -21.78125 19.785156 -23.234375 C 19.964844 -24.777344 20.058594 -27.773438 20.058594 -29.316406 C 20.058594 -30.859375 20.058594 -32.492188 20.058594 -34.035156 Z M 16.15625 -23.234375 C 16.0625 -21.78125 15.972656 -20.421875 15.792969 -18.96875 C 15.609375 -17.789062 15.429688 -16.609375 15.066406 -15.519531 C 14.792969 -14.339844 14.429688 -13.25 13.976562 -12.160156 C 13.339844 -10.710938 12.617188 -9.347656 11.707031 -8.078125 C 10.710938 -6.898438 9.621094 -5.808594 8.441406 -4.808594 C 7.988281 -4.539062 7.53125 -4.265625 7.078125 -3.992188 C 6.898438 -3.902344 6.714844 -3.902344 6.535156 -3.8125 C 6.535156 -4.808594 6.535156 -5.808594 6.445312 -6.808594 C 6.445312 -8.257812 6.351562 -9.710938 6.351562 -11.164062 C 6.171875 -14.25 6.171875 -17.335938 6.082031 -20.421875 C 6.082031 -21.964844 5.988281 -23.414062 5.898438 -24.957031 C 5.71875 -26.5 5.628906 -29.496094 5.445312 -31.039062 C 5.265625 -34.035156 5.171875 -37.300781 5.171875 -40.386719 C 5.171875 -43.292969 5.082031 -46.195312 4.992188 -49.101562 C 5.898438 -49.007812 6.714844 -48.738281 7.625 -48.554688 C 8.53125 -48.375 9.4375 -48.101562 10.253906 -47.828125 C 10.800781 -47.558594 11.253906 -47.375 11.707031 -47.011719 C 11.980469 -46.738281 12.253906 -46.46875 12.523438 -46.195312 C 12.796875 -46.015625 12.976562 -45.742188 13.25 -45.46875 C 13.613281 -44.925781 13.976562 -44.378906 14.25 -43.835938 C 14.519531 -43.292969 14.792969 -42.835938 15.066406 -42.292969 C 15.339844 -41.65625 15.519531 -41.023438 15.699219 -40.386719 C 15.882812 -39.75 16.0625 -39.027344 16.15625 -38.300781 C 16.335938 -37.027344 16.425781 -35.394531 16.425781 -34.035156 C 16.425781 -32.492188 16.425781 -30.859375 16.425781 -29.316406 C 16.425781 -27.773438 16.335938 -24.777344 16.15625 -23.234375 Z M 16.15625 -23.234375 "/></g></g></g><g fill="#231f20" fill-opacity="1"><g transform="translate(271.626527, 239.106299)"><g><path d="M 12.886719 -3.992188 C 12.523438 -4.355469 12.070312 -4.628906 11.617188 -4.539062 C 10.890625 -4.445312 10.253906 -4.445312 9.53125 -4.355469 C 8.894531 -4.355469 8.257812 -4.445312 7.625 -4.539062 C 6.898438 -4.628906 6.171875 -4.808594 5.445312 -4.992188 C 5.445312 -5.445312 5.445312 -5.898438 5.445312 -6.445312 C 5.535156 -7.078125 5.535156 -7.714844 5.535156 -8.441406 C 5.628906 -9.890625 5.628906 -11.433594 5.628906 -12.886719 C 5.628906 -15.882812 5.628906 -18.878906 5.628906 -21.78125 C 5.628906 -24.957031 5.628906 -28.042969 5.628906 -31.21875 C 5.628906 -32.671875 5.535156 -36.03125 5.535156 -37.484375 C 5.535156 -38.207031 5.535156 -39.027344 5.535156 -39.75 C 6.351562 -39.75 7.351562 -39.75 7.894531 -39.660156 C 8.078125 -39.660156 8.351562 -39.660156 8.621094 -39.660156 C 8.984375 -39.570312 9.4375 -39.570312 9.800781 -39.660156 C 10.253906 -39.84375 10.617188 -40.113281 10.890625 -40.476562 C 11.164062 -40.929688 11.253906 -41.476562 11.074219 -41.929688 C 10.890625 -42.566406 10.4375 -43.019531 9.800781 -43.199219 C 9.53125 -43.292969 9.347656 -43.292969 9.074219 -43.292969 C 8.621094 -43.292969 8.078125 -43.292969 7.714844 -43.292969 C 6.988281 -43.382812 6.261719 -43.382812 5.535156 -43.382812 C 5.535156 -43.382812 5.445312 -43.382812 5.445312 -43.382812 C 5.445312 -46.378906 5.445312 -47.464844 5.535156 -48.644531 C 5.628906 -49.007812 5.71875 -49.28125 5.808594 -49.554688 C 5.808594 -49.554688 5.808594 -49.554688 5.808594 -49.644531 C 6.351562 -49.644531 6.898438 -49.554688 7.441406 -49.460938 C 7.53125 -49.460938 7.625 -49.460938 7.714844 -49.460938 C 7.804688 -49.460938 7.894531 -49.460938 8.078125 -49.371094 C 8.078125 -49.371094 8.167969 -49.371094 8.167969 -49.371094 C 8.257812 -49.371094 8.351562 -49.371094 8.441406 -49.371094 C 8.53125 -49.28125 8.710938 -49.28125 8.804688 -49.28125 C 8.894531 -49.28125 8.984375 -49.28125 9.074219 -49.28125 C 9.4375 -49.191406 9.710938 -49.191406 9.984375 -49.191406 C 10.4375 -49.101562 10.980469 -49.371094 11.253906 -49.644531 C 11.617188 -50.007812 11.796875 -50.460938 11.796875 -50.914062 C 11.796875 -51.460938 11.617188 -51.914062 11.253906 -52.277344 C 11.164062 -52.367188 11.074219 -52.457031 10.890625 -52.546875 C 10.617188 -52.640625 10.347656 -52.730469 9.984375 -52.730469 C 8.894531 -52.820312 6.988281 -53.183594 5.988281 -53.183594 C 5.988281 -53.183594 5.898438 -53.183594 5.808594 -53.183594 C 5.535156 -53.183594 5.171875 -53.183594 4.808594 -53.09375 C 4.539062 -53.09375 4.265625 -52.910156 3.902344 -52.730469 C 3.722656 -52.640625 3.539062 -52.457031 3.359375 -52.277344 C 2.902344 -51.914062 2.632812 -51.367188 2.449219 -50.824219 C 1.996094 -49.824219 1.90625 -48.644531 1.90625 -47.558594 C 1.816406 -46.832031 1.816406 -46.105469 1.816406 -45.378906 C 1.816406 -43.835938 1.816406 -42.292969 1.90625 -40.75 C 1.90625 -39.296875 1.90625 -37.753906 1.90625 -36.304688 C 1.90625 -34.761719 1.996094 -31.402344 1.996094 -29.859375 C 1.996094 -28.316406 1.996094 -26.773438 1.996094 -25.230469 C 1.996094 -22.234375 1.996094 -19.242188 1.996094 -16.246094 C 1.996094 -13.25 1.996094 -10.253906 1.90625 -7.261719 C 1.90625 -6.535156 1.816406 -5.898438 1.816406 -5.265625 C 1.816406 -4.808594 1.90625 -4.355469 1.90625 -3.902344 C 1.996094 -3.539062 2.085938 -3.265625 2.269531 -2.902344 C 2.359375 -2.722656 2.542969 -2.542969 2.722656 -2.359375 C 2.996094 -2.085938 3.359375 -1.90625 3.8125 -1.722656 C 4.355469 -1.542969 5.082031 -1.363281 5.71875 -1.179688 C 6.535156 -1 7.441406 -0.90625 8.257812 -0.816406 C 8.804688 -0.816406 9.347656 -0.726562 9.890625 -0.816406 C 10.4375 -0.816406 11.074219 -0.90625 11.617188 -0.90625 C 11.707031 -1 11.890625 -1 12.070312 -1 C 12.34375 -1.089844 12.617188 -1.269531 12.886719 -1.453125 C 13.25 -1.816406 13.433594 -2.269531 13.433594 -2.722656 C 13.433594 -3.265625 13.25 -3.722656 12.886719 -3.992188 Z M 12.886719 -3.992188 "/></g></g></g><g fill="#231f20" fill-opacity="1"><g transform="translate(286.600285, 239.106299)"><g><path d="M 12.433594 -51.914062 C 10.980469 -52.277344 9.4375 -52.546875 7.988281 -52.640625 C 7.714844 -52.640625 7.441406 -52.640625 7.167969 -52.640625 C 7.078125 -52.640625 6.988281 -52.640625 6.898438 -52.640625 C 5.988281 -52.640625 5.082031 -52.277344 4.445312 -51.640625 C 3.539062 -50.824219 3.085938 -49.644531 2.902344 -48.554688 C 2.722656 -47.648438 2.632812 -46.832031 2.632812 -46.015625 C 2.632812 -45.195312 2.542969 -44.472656 2.542969 -43.746094 C 2.542969 -42.203125 2.449219 -40.660156 2.449219 -39.117188 C 2.359375 -36.121094 2.269531 -31.675781 2.179688 -28.589844 C 2.179688 -25.683594 2.085938 -22.6875 2.085938 -19.785156 C 2.085938 -18.332031 2.085938 -16.972656 2.085938 -15.519531 C 2.085938 -14.066406 2.085938 -12.617188 1.996094 -11.253906 C 1.996094 -9.800781 1.996094 -7.261719 1.996094 -5.898438 C 1.90625 -5.171875 1.90625 -4.539062 1.816406 -3.902344 C 1.816406 -3.265625 1.816406 -2.632812 1.722656 -2.085938 C 1.632812 -1.632812 1.90625 -1.089844 2.269531 -0.816406 C 2.542969 -0.453125 3.085938 -0.273438 3.539062 -0.273438 C 3.992188 -0.273438 4.445312 -0.453125 4.808594 -0.816406 C 4.902344 -0.90625 4.992188 -1 5.082031 -1.179688 C 5.265625 -1.453125 5.355469 -1.722656 5.355469 -2.085938 C 5.355469 -2.632812 5.445312 -3.265625 5.445312 -3.902344 C 5.535156 -4.628906 5.535156 -5.265625 5.535156 -5.988281 C 5.628906 -7.441406 5.628906 -9.890625 5.628906 -11.34375 C 5.628906 -12.886719 5.71875 -14.339844 5.71875 -15.882812 C 5.71875 -17.335938 5.71875 -18.785156 5.71875 -20.238281 C 5.71875 -23.144531 5.808594 -26.136719 5.808594 -29.042969 C 5.898438 -32.128906 5.988281 -36.574219 6.082031 -39.570312 C 6.082031 -39.933594 6.082031 -40.386719 6.082031 -40.839844 C 6.082031 -40.839844 6.082031 -40.839844 6.082031 -40.75 C 7.714844 -40.476562 9.074219 -40.476562 10.527344 -40.476562 C 11.074219 -40.386719 11.527344 -40.386719 11.980469 -40.660156 C 12.34375 -40.929688 12.617188 -41.292969 12.796875 -41.75 C 12.976562 -42.65625 12.433594 -43.746094 11.527344 -43.925781 C 10.800781 -44.109375 9.984375 -44.109375 9.257812 -44.109375 C 8.621094 -44.199219 7.894531 -44.199219 7.261719 -44.289062 C 6.898438 -44.289062 6.535156 -44.378906 6.171875 -44.472656 C 6.171875 -46.105469 6.171875 -47.558594 6.714844 -48.738281 C 6.714844 -48.828125 6.808594 -48.917969 6.808594 -49.007812 C 6.808594 -49.007812 6.808594 -49.007812 6.898438 -49.007812 C 6.898438 -49.007812 6.898438 -49.007812 6.988281 -49.007812 C 7.625 -49.007812 8.257812 -49.007812 8.894531 -48.917969 C 9.800781 -48.828125 10.617188 -48.644531 11.433594 -48.375 C 12.433594 -48.191406 13.433594 -48.738281 13.703125 -49.644531 C 13.976562 -50.644531 13.339844 -51.640625 12.433594 -51.914062 Z M 12.433594 -51.914062 "/></g></g></g><g fill="#231f20" fill-opacity="1"><g transform="translate(301.574043, 239.106299)"><g/></g></g><g fill="#231f20" fill-opacity="1"><g transform="translate(320.268549, 239.106299)"><g><path d="M 11.074219 -52.640625 C 10.253906 -52.546875 9.53125 -52.457031 8.804688 -52.1875 C 8.351562 -52.003906 7.894531 -51.824219 7.441406 -51.460938 C 6.988281 -51.1875 6.625 -50.824219 6.261719 -50.460938 C 5.988281 -50.097656 5.628906 -49.644531 5.355469 -49.28125 C 4.902344 -48.644531 4.539062 -48.011719 4.175781 -47.285156 C 3.539062 -45.832031 3.175781 -43.382812 2.902344 -41.75 C 2.632812 -40.113281 2.449219 -38.480469 2.359375 -36.847656 C 2.179688 -35.394531 2.179688 -33.941406 2.085938 -32.582031 C 1.996094 -29.585938 1.996094 -26.59375 2.179688 -23.6875 C 2.269531 -22.144531 2.359375 -20.601562 2.542969 -19.058594 C 2.632812 -17.699219 2.8125 -16.246094 2.996094 -14.792969 C 3.175781 -13.25 3.359375 -11.707031 3.722656 -10.164062 C 3.992188 -8.984375 4.265625 -7.804688 4.71875 -6.625 C 4.992188 -5.898438 5.355469 -5.171875 5.808594 -4.445312 C 6.082031 -4.085938 6.351562 -3.722656 6.714844 -3.359375 C 6.988281 -3.085938 7.351562 -2.8125 7.714844 -2.542969 C 7.988281 -2.359375 8.257812 -2.179688 8.621094 -2.085938 C 8.984375 -1.816406 9.4375 -1.632812 9.890625 -1.453125 C 10.527344 -1.179688 11.253906 -1.089844 11.980469 -1 C 12.617188 -0.90625 13.25 -0.90625 13.886719 -1 C 14.339844 -1 14.792969 -1.089844 15.246094 -1.269531 C 15.699219 -1.453125 16.15625 -1.632812 16.609375 -1.816406 C 17.335938 -2.085938 17.878906 -2.632812 18.421875 -3.175781 C 19.058594 -3.8125 19.511719 -4.628906 19.785156 -5.445312 C 20.148438 -6.261719 20.238281 -7.167969 20.328125 -7.988281 C 20.328125 -8.710938 20.328125 -9.4375 20.328125 -10.074219 C 20.238281 -11.617188 20.148438 -13.070312 20.058594 -14.613281 C 19.964844 -16.0625 19.964844 -17.515625 19.875 -18.96875 C 19.785156 -20.421875 19.695312 -21.871094 19.605469 -23.324219 C 19.605469 -24.414062 19.605469 -25.503906 19.511719 -26.5 C 19.511719 -27.589844 19.421875 -28.679688 19.332031 -29.675781 C 19.332031 -30.765625 19.332031 -31.765625 19.242188 -32.855469 C 19.148438 -34.035156 19.058594 -35.125 18.878906 -36.210938 C 18.878906 -36.121094 18.878906 -35.941406 18.96875 -35.757812 C 18.878906 -36.394531 18.785156 -37.121094 18.695312 -37.753906 C 18.605469 -38.480469 17.96875 -39.117188 17.335938 -39.390625 C 16.882812 -39.570312 16.519531 -39.660156 15.972656 -39.75 C 15.609375 -39.75 15.339844 -39.75 15.066406 -39.75 C 14.25 -39.660156 13.523438 -39.480469 12.707031 -39.296875 C 12.433594 -39.207031 12.160156 -39.117188 11.796875 -39.027344 C 11.433594 -38.933594 10.980469 -38.753906 10.527344 -38.570312 C 9.710938 -38.027344 9.4375 -36.9375 9.890625 -36.121094 C 10.4375 -35.214844 11.527344 -34.941406 12.34375 -35.394531 C 12.707031 -35.578125 13.160156 -35.667969 13.523438 -35.757812 C 13.976562 -35.941406 14.519531 -36.03125 14.976562 -36.121094 C 15.066406 -36.121094 15.15625 -36.121094 15.246094 -36.121094 C 15.246094 -36.121094 15.339844 -35.214844 15.429688 -34.851562 C 15.609375 -33.488281 15.699219 -32.21875 15.699219 -30.859375 C 15.792969 -29.316406 15.882812 -27.863281 15.882812 -26.320312 C 15.972656 -24.867188 15.972656 -23.324219 16.0625 -21.871094 C 16.15625 -20.421875 16.246094 -18.96875 16.335938 -17.515625 C 16.335938 -15.882812 16.425781 -14.15625 16.609375 -12.433594 C 16.699219 -10.800781 16.789062 -9.257812 16.609375 -7.625 C 16.609375 -7.167969 16.519531 -6.808594 16.335938 -6.445312 C 16.246094 -6.261719 16.15625 -6.082031 15.972656 -5.898438 C 15.792969 -5.628906 15.609375 -5.445312 15.429688 -5.265625 C 15.246094 -5.171875 15.066406 -5.082031 14.882812 -4.992188 C 14.429688 -4.808594 14.066406 -4.628906 13.613281 -4.628906 C 13.160156 -4.539062 12.707031 -4.539062 12.253906 -4.628906 C 11.796875 -4.71875 11.253906 -4.808594 10.890625 -4.992188 C 10.4375 -5.171875 9.984375 -5.355469 9.621094 -5.628906 C 9.347656 -5.808594 9.167969 -6.082031 8.894531 -6.351562 C 8.621094 -6.714844 8.441406 -7.167969 8.167969 -7.625 C 7.804688 -8.621094 7.53125 -9.710938 7.261719 -10.800781 C 6.988281 -11.980469 6.808594 -13.25 6.625 -14.519531 C 6.445312 -15.882812 6.261719 -17.242188 6.171875 -18.605469 C 5.988281 -20.058594 5.898438 -21.601562 5.808594 -23.050781 C 5.628906 -26.046875 5.628906 -29.042969 5.71875 -32.039062 C 5.808594 -34.851562 5.988281 -37.574219 6.351562 -40.296875 C 6.535156 -41.75 6.808594 -44.199219 7.351562 -45.558594 C 7.53125 -45.921875 7.714844 -46.285156 7.988281 -46.648438 C 8.167969 -47.011719 8.351562 -47.285156 8.621094 -47.648438 C 8.894531 -47.921875 9.167969 -48.191406 9.4375 -48.464844 C 9.621094 -48.644531 9.800781 -48.738281 9.984375 -48.828125 C 10.253906 -48.917969 10.527344 -48.917969 10.800781 -49.007812 C 11.433594 -49.101562 11.980469 -49.007812 12.617188 -49.007812 C 12.976562 -48.917969 13.339844 -48.828125 13.796875 -48.738281 C 14.066406 -48.554688 14.339844 -48.375 14.613281 -48.191406 C 15.429688 -47.464844 16.0625 -46.648438 16.789062 -45.832031 C 17.0625 -45.46875 17.605469 -45.289062 18.0625 -45.289062 C 18.515625 -45.289062 18.96875 -45.46875 19.332031 -45.832031 C 19.605469 -46.105469 19.875 -46.648438 19.875 -47.101562 C 19.785156 -47.285156 19.785156 -47.375 19.785156 -47.558594 C 19.695312 -47.828125 19.511719 -48.101562 19.332031 -48.375 C 18.878906 -48.917969 18.421875 -49.554688 17.878906 -50.097656 C 17.605469 -50.371094 17.242188 -50.644531 16.972656 -50.914062 C 16.519531 -51.277344 16.0625 -51.550781 15.609375 -51.824219 C 15.246094 -52.003906 14.882812 -52.09375 14.429688 -52.277344 C 14.15625 -52.367188 13.886719 -52.457031 13.613281 -52.457031 C 13.070312 -52.546875 12.617188 -52.640625 12.070312 -52.640625 C 11.890625 -52.640625 11.707031 -52.640625 11.527344 -52.640625 C 11.34375 -52.640625 11.253906 -52.640625 11.074219 -52.640625 Z M 11.074219 -52.640625 "/></g></g></g><g fill="#231f20" fill-opacity="1"><g transform="translate(342.596566, 239.106299)"><g/></g></g><g fill="#231f20" fill-opacity="1"><g transform="translate(361.291072, 239.106299)"><g/></g></g><path fill="#ffffff" d="M 169.480469 180.609375 C 169.480469 180.609375 141.847656 162.480469 156.007812 151.824219 C 170.167969 141.171875 169.480469 180.609375 169.480469 180.609375 Z M 169.480469 180.609375 " fill-opacity="1" fill-rule="nonzero"/><path fill="#ffffff" d="M 168.371094 180.253906 C 168.371094 180.253906 197.238281 164.140625 183.882812 152.503906 C 170.523438 140.867188 168.371094 180.253906 168.371094 180.253906 Z M 168.371094 180.253906 " fill-opacity="1" fill-rule="nonzero"/><g clip-path="url(#fba1574073)"><path fill="#ffca3a" d="M 168.40625 172.566406 C 155.101562 171.660156 121.53125 172.566406 121.53125 201.09375 C 121.53125 231.609375 162.8125 231.601562 172.414062 231.601562 C 182.015625 231.601562 211.695312 229.742188 212.699219 202.167969 C 213.707031 174.59375 174.269531 172.964844 168.40625 172.566406 Z M 168.40625 172.566406 " fill-opacity="1" fill-rule="nonzero"/></g><path fill="#231f20" d="M 161.925781 232.796875 C 161.84375 232.796875 161.761719 232.789062 161.679688 232.773438 C 161.03125 232.636719 160.613281 232 160.75 231.355469 C 167.003906 201.824219 160.375 172.027344 160.308594 171.730469 C 160.164062 171.085938 160.566406 170.445312 161.214844 170.296875 C 161.863281 170.152344 162.503906 170.554688 162.652344 171.199219 C 162.722656 171.503906 169.46875 201.792969 163.101562 231.847656 C 162.984375 232.410156 162.484375 232.796875 161.929688 232.796875 Z M 161.925781 232.796875 " fill-opacity="1" fill-rule="nonzero"/><g clip-path="url(#e6202d8864)"><path fill="#231f20" d="M 175.234375 233.871094 C 175.152344 233.871094 175.070312 233.863281 174.988281 233.84375 C 174.335938 233.707031 173.921875 233.074219 174.058594 232.425781 C 180.320312 202.871094 174.078125 172.910156 174.011719 172.609375 C 173.875 171.964844 174.289062 171.328125 174.9375 171.191406 C 175.589844 171.054688 176.226562 171.464844 176.363281 172.113281 C 176.425781 172.414062 182.773438 202.871094 176.410156 232.917969 C 176.289062 233.480469 175.792969 233.867188 175.238281 233.867188 Z M 175.234375 233.871094 " fill-opacity="1" fill-rule="nonzero"/></g><path fill="#231f20" d="M 188.507812 231.929688 C 188.425781 231.929688 188.339844 231.921875 188.257812 231.90625 C 187.609375 231.769531 187.195312 231.132812 187.332031 230.484375 C 193.582031 200.964844 187.976562 175.382812 187.917969 175.128906 C 187.773438 174.484375 188.183594 173.84375 188.828125 173.699219 C 189.476562 173.554688 190.117188 173.960938 190.265625 174.605469 C 190.324219 174.867188 196.046875 200.925781 189.683594 230.980469 C 189.5625 231.542969 189.0625 231.929688 188.507812 231.929688 Z M 188.507812 231.929688 " fill-opacity="1" fill-rule="nonzero"/><path fill="#231f20" d="M 201.921875 226.660156 C 201.839844 226.660156 201.753906 226.652344 201.671875 226.636719 C 201.023438 226.5 200.609375 225.863281 200.746094 225.21875 C 206.964844 195.847656 202.386719 182 202.339844 181.863281 C 202.125 181.242188 202.457031 180.558594 203.082031 180.34375 C 203.710938 180.128906 204.394531 180.457031 204.609375 181.082031 C 204.8125 181.660156 209.476562 195.585938 203.097656 225.710938 C 202.976562 226.273438 202.476562 226.660156 201.921875 226.660156 Z M 201.921875 226.660156 " fill-opacity="1" fill-rule="nonzero"/><path fill="#231f20" d="M 133.355469 199.03125 C 134.613281 199.03125 135.816406 197.929688 135.757812 196.636719 C 135.699219 195.339844 134.703125 194.242188 133.355469 194.242188 C 132.097656 194.242188 130.894531 195.34375 130.953125 196.636719 C 131.011719 197.933594 132.007812 199.03125 133.355469 199.03125 Z M 133.355469 199.03125 " fill-opacity="1" fill-rule="nonzero"/><path fill="#231f20" d="M 145.570312 199.03125 C 146.828125 199.03125 148.03125 197.929688 147.972656 196.636719 C 147.914062 195.339844 146.917969 194.242188 145.570312 194.242188 C 144.316406 194.242188 143.109375 195.34375 143.167969 196.636719 C 143.226562 197.933594 144.222656 199.03125 145.570312 199.03125 Z M 145.570312 199.03125 " fill-opacity="1" fill-rule="nonzero"/><g clip-path="url(#8ff572e155)"><g clip-path="url(#1e757cc840)"><path fill="#ffca3a" d="M 197.152344 212.023438 L 206.359375 212.023438 L 206.359375 221.226562 L 197.152344 221.226562 Z M 197.152344 212.023438 " fill-opacity="1" fill-rule="nonzero"/></g></g><g clip-path="url(#b372e8c3c8)"><g clip-path="url(#a06d53c072)"><path fill="#ffca3a" d="M 296.859375 212.023438 L 306.066406 212.023438 L 306.066406 221.226562 L 296.859375 221.226562 Z M 296.859375 212.023438 " fill-opacity="1" fill-rule="nonzero"/></g></g><g clip-path="url(#bb6d497e53)"><g clip-path="url(#116a10da18)"><path fill="#ffca3a" d="M 66.519531 207.417969 L 75.726562 207.417969 L 75.726562 216.625 L 66.519531 216.625 Z M 66.519531 207.417969 " fill-opacity="1" fill-rule="nonzero"/></g></g></svg>