<svg xmlns="http://www.w3.org/2000/svg" xmlns:xlink="http://www.w3.org/1999/xlink" width="500" zoomAndPan="magnify" viewBox="0 0 375 374.999991" height="500" preserveAspectRatio="xMidYMid meet" version="1.0"><defs><clipPath id="4252f1b0d8"><path d="M 51.027344 137 L 321 137 L 321 313 L 51.027344 313 Z M 51.027344 137 " clip-rule="nonzero"/></clipPath><clipPath id="a7641d82b6"><path d="M 206 133 L 222 133 L 222 319.589844 L 206 319.589844 Z M 206 133 " clip-rule="nonzero"/></clipPath></defs><path fill="#ffffff" d="M 193.039062 161.527344 C 193.039062 161.527344 111.257812 107.71875 153.164062 76.101562 C 195.0625 44.480469 193.039062 161.523438 193.039062 161.523438 Z M 193.039062 161.527344 " fill-opacity="1" fill-rule="nonzero"/><path fill="#ffffff" d="M 189.75 160.46875 C 189.75 160.46875 275.171875 112.652344 235.648438 78.121094 C 196.117188 43.585938 189.75 160.472656 189.75 160.472656 Z M 189.75 160.46875 " fill-opacity="1" fill-rule="nonzero"/><g clip-path="url(#4252f1b0d8)"><path fill="#ffca3a" d="M 189.851562 137.65625 C 150.484375 134.972656 51.136719 137.65625 51.136719 222.316406 C 51.136719 312.882812 173.296875 312.859375 201.710938 312.859375 C 230.125 312.859375 317.953125 307.335938 320.929688 225.503906 C 323.902344 143.671875 207.203125 138.835938 189.851562 137.65625 Z M 189.851562 137.65625 " fill-opacity="1" fill-rule="nonzero"/></g><path fill="#231f20" d="M 170.679688 316.410156 C 170.4375 316.410156 170.191406 316.382812 169.945312 316.332031 C 168.023438 315.929688 166.796875 314.042969 167.199219 312.125 C 185.707031 224.488281 166.09375 136.054688 165.894531 135.175781 C 165.460938 133.261719 166.660156 131.359375 168.574219 130.925781 C 170.484375 130.492188 172.390625 131.691406 172.824219 133.601562 C 173.03125 134.5 192.996094 224.390625 174.15625 313.589844 C 173.804688 315.257812 172.328125 316.40625 170.683594 316.40625 Z M 170.679688 316.410156 " fill-opacity="1" fill-rule="nonzero"/><g clip-path="url(#a7641d82b6)"><path fill="#231f20" d="M 210.0625 319.589844 C 209.820312 319.589844 209.570312 319.566406 209.324219 319.515625 C 207.40625 319.109375 206.175781 317.222656 206.582031 315.304688 C 225.105469 227.589844 206.632812 138.675781 206.445312 137.785156 C 206.035156 135.867188 207.265625 133.980469 209.179688 133.574219 C 211.109375 133.164062 212.988281 134.390625 213.398438 136.308594 C 213.589844 137.210938 232.371094 227.59375 213.539062 316.765625 C 213.183594 318.4375 211.707031 319.582031 210.066406 319.582031 Z M 210.0625 319.589844 " fill-opacity="1" fill-rule="nonzero"/></g><path fill="#231f20" d="M 249.335938 313.832031 C 249.09375 313.832031 248.84375 313.808594 248.597656 313.757812 C 246.675781 313.355469 245.449219 311.46875 245.855469 309.546875 C 264.359375 221.933594 247.765625 146.019531 247.597656 145.265625 C 247.167969 143.351562 248.375 141.453125 250.289062 141.023438 C 252.207031 140.59375 254.105469 141.792969 254.535156 143.710938 C 254.707031 144.480469 271.648438 221.824219 252.8125 311.015625 C 252.457031 312.6875 250.980469 313.832031 249.339844 313.832031 Z M 249.335938 313.832031 " fill-opacity="1" fill-rule="nonzero"/><path fill="#231f20" d="M 289.027344 298.199219 C 288.789062 298.199219 288.539062 298.171875 288.292969 298.125 C 286.371094 297.71875 285.144531 295.832031 285.546875 293.914062 C 303.960938 206.746094 290.410156 165.65625 290.269531 165.253906 C 289.632812 163.398438 290.613281 161.378906 292.46875 160.738281 C 294.324219 160.105469 296.34375 161.078125 296.988281 162.925781 C 297.582031 164.644531 311.386719 205.972656 292.507812 295.378906 C 292.152344 297.046875 290.675781 298.195312 289.03125 298.195312 Z M 289.027344 298.199219 " fill-opacity="1" fill-rule="nonzero"/><path fill="#231f20" d="M 86.132812 216.191406 C 89.851562 216.191406 93.414062 212.925781 93.242188 209.089844 C 93.066406 205.242188 90.117188 201.988281 86.132812 201.988281 C 82.414062 201.988281 78.847656 205.253906 79.023438 209.089844 C 79.195312 212.9375 82.144531 216.191406 86.132812 216.191406 Z M 86.132812 216.191406 " fill-opacity="1" fill-rule="nonzero"/><path fill="#231f20" d="M 122.28125 216.191406 C 126 216.191406 129.5625 212.925781 129.390625 209.089844 C 129.21875 205.242188 126.265625 201.988281 122.28125 201.988281 C 118.5625 201.988281 115 205.253906 115.171875 209.089844 C 115.34375 212.9375 118.296875 216.191406 122.28125 216.191406 Z M 122.28125 216.191406 " fill-opacity="1" fill-rule="nonzero"/></svg>